<svg height="270" viewBox="0 0 1002 270" width="1002" xmlns="http://www.w3.org/2000/svg"><g fill="#000" fill-rule="evenodd"><g fill-rule="nonzero" transform="translate(9 13)"><path d="m242.373276 154.973214c-4.754867 0-9.313351.753911-13.60999 2.125197l-30.391876-73.930759c7.081718-4.0426246 12.90777-9.9967399 16.883053-17.1084349.047608-.0474905.047608-.1187261.089266-.1721529 3.517054-6.3518478 5.582059-13.6060142 5.582059-21.3647666 0-24.552563-20.013291-44.5222976-44.632674-44.5222976-24.607481 0-44.632675 19.9697346-44.632675 44.5222976 0 7.5331728 1.898377 14.6211226 5.213097 20.8423716l-60.6230746 43.4240808c-8.0814897-8.097122-19.2634624-13.1251731-31.6177868-13.1251731-24.6134323 0-44.6326746 19.9637981-44.6326746 44.5222981 0 24.546626 20.0192423 44.522297 44.6326746 44.522297 16.9128082 0 31.6534929-9.438727 39.2231945-23.294066l114.6762189 29.883366c-.499886 2.653529-.797437 5.378294-.797437 8.18023 0 24.5585 20.025193 44.522298 44.632674 44.522298 24.619384 0 44.632675-19.963798 44.632675-44.522298-.005951-24.546626-20.013291-44.504488-44.626724-44.504488zm-102.88129-122.3116564c.220188.1246624.422522.2849427.690319.2849427.850996 0 1.535364-.6886116 1.535364-1.5315671 0-.736102-.559397-1.2584969-1.249715-1.4069046 1.582972-3.8585991 3.766997-7.402574 6.444958-10.5191348.797437-.0593631 1.434196-.6826753 1.434196-1.4900129 0-.0237453-.023804-.0356179-.023804-.0593631 2.761275-2.8850449 5.939122-5.3664209 9.474029-7.2957205-.113069.2077707-.267796.3917962-.267796.6411211 0 .8429555.684368 1.5256307 1.535364 1.5256307.850997 0 1.535364-.6826752 1.535364-1.5256307 0-.7242294-.547494-1.2466244-1.22591-1.40690463 5.111929-2.49918497 10.836813-3.94170742 16.912808-3.94170742 6.617538 0 12.85421 1.67403839 18.311298 4.60657375-.136873.2315159-.303502.4511593-.303502.736102 0 .8429555.672466 1.5256307 1.523462 1.5256307.559396 0 .958115-.3502421 1.225911-.7895287 4.612043 2.9444079 8.563523 6.820816 11.568789 11.3798992-.17853-.0831083-.333257-.2315159-.547494-.2315159-.839094 0-1.535364.6886115-1.535364 1.531567s.69627 1.5256308 1.535364 1.5256308c.767682 0 1.356833-.599567 1.458001-1.3416053 2.130466 3.5855291 3.731291 7.5213002 4.612043 11.7242051-.821241.0296815-1.469903.6826752-1.469903 1.5078218 0 .8429555.672466 1.531567 1.523462 1.531567.154727 0 .261845-.1246624.40467-.1662166.172579 1.3534779.285649 2.7247647.321355 4.1197967-.226139-.1365351-.440376-.3027517-.726025-.3027517-.850996 0-1.523462.6886116-1.523462 1.5315671s.672466 1.5256307 1.523462 1.5256307c.273747 0 .476082-.1662166.690319-.2849427-.053559 1.3772231-.178531 2.7307009-.374915 4.0723062-.11902-.0296816-.190432-.1305988-.315404-.1305988-.850996 0-1.523462.6826752-1.523462 1.5256307 0 .7657836.589151 1.3416053 1.327078 1.4543951-.922408 4.0901151-2.511331 7.924969-4.623945 11.4155171-.238041-.5402039-.678416-.9735542-1.303274-.9735542-.839094 0-1.535364.6826752-1.535364 1.5256307 0 .8370192.684368 1.5078218 1.51156 1.5256307-1.39849 2.0124079-2.987414 3.8823444-4.737014 5.5920006.047608-.1424713.166628-.2493248.166628-.4096051 0-.8429555-.684368-1.5196944-1.523462-1.5196944-.850996 0-1.547266.6767389-1.547266 1.5196944 0 .8488918.69627 1.5375033 1.547266 1.5375033.083315 0 .130923-.077172.208286-.0890446-1.690091 1.5196945-3.511104 2.8969175-5.451137 4.107924-.255894-.1958981-.547494-.3739873-.892654-.3739873-.850996 0-1.523462.6945479-1.523462 1.5375034 0 .0831083.077364.1305987.089266.213707-5.40353 2.867236-11.556888 4.5056565-18.097062 4.5056565-5.802248 0-11.28314-1.31786-16.228441-3.6033379.321356-.2790064.541543-.65893.541543-1.1160256 0-.8429555-.684367-1.5375034-1.535364-1.5375034-.803388 0-1.416343.6411211-1.487755 1.4187772-3.606321-2.0005352-6.849628-4.5768921-9.634707-7.5806632-.041657-.0474904-.071412-.0831083-.119021-.1246624-2.963609-3.217478-5.415431-6.9039243-7.15313-10.9821667.57725-.2196434 1.041429-.6708027 1.041429-1.3237964 0-.8429555-.684367-1.531567-1.535364-1.531567-.190432 0-.321355.136535-.493934.2077707-1.33303-3.9001533-2.08881-8.061504-2.08881-12.4068803.017853-4.1376055.690319-8.120867 1.904328-11.86074zm-60.3255232 124.8227134c-.0892654-.017809-.1428246-.100917-.238041-.100917-.8450453 0-1.535364.676739-1.535364 1.525631 0 .391796.1725797.736102.4225227 1.009172-1.1009393 1.834318-2.3208991 3.573656-3.7015365 5.194268-.2261389-.563949-.6724656-1.015109-1.3151761-1.015109-.8509964 0-1.5353641.688612-1.5353641 1.531568 0 .688611.499886 1.169452 1.1247434 1.36535-1.4818048 1.531567-3.1004831 2.920663-4.8262798 4.191032-.255894-.201834-.5474942-.373987-.8926535-.373987-.8569474 0-1.5413151.688612-1.5413151 1.531567 0 .154344.1249715.261198.1666287.403669-4.6715533 2.962217-10.0096212 4.944943-15.7404566 5.681045-.249943-.504586-.6724656-.902319-1.267568-.902319-.6962697 0-1.1783026.504587-1.3687353 1.133835-.761731.04749-1.517511.118726-2.291144.118726-.3630124 0-.7081718-.04749-1.0652331-.053427-.1666287-.664866-.6784167-1.199134-1.3984905-1.199134-.6605636 0-1.1187924.468969-1.3330292 1.062599-1.2437639-.124662-2.4756257-.314624-3.6836835-.54614-.279698-.308688-.6546125-.516459-1.1009393-.516459-.1487755 0-.2499429.124663-.3868165.160281-3.83841-.914191-7.4447301-2.398268-10.747548-4.357249.2320899-.27307.4046696-.605503.4046696-.985427 0-.842955-.6843677-1.531567-1.5353641-1.531567-.6189064 0-1.0592821.43335-1.297323.967618-2.1185643-1.484077-4.082402-3.175924-5.861758-5.04586.2737471.255261.6308085.427414 1.0295271.427414.8509963 0 1.535364-.688612 1.535364-1.537504 0-.842955-.6843677-1.531567-1.535364-1.531567-.8390943 0-1.529413.688612-1.529413 1.531567 0 .397733.1725797.753911.4284737 1.026981-1.8210132-1.917427-3.4396915-4.030752-4.838182-6.292485.7438779-.106853 1.3508823-.682675 1.3508823-1.454395 0-.848891-.6903187-1.52563-1.529413-1.52563-.511788 0-.8926535.279006-1.1723516.652993-1.86267025-3.549911-3.17189537-7.426319-3.85031203-11.510498.24994298-.27307.42847368-.623312.42847368-1.026981 0-.552076-.33920833-.943872-.767682-1.216942-.14282456-1.347542-.22613889-2.712892-.22613889-4.090115 0-.035618.00595103-.071236.00595103-.106854.54749414-.237452.98786986-.676739.98786986-1.311924 0-.581758-.37491447-.991363-.86289838-1.246624.44037573-6.339975 2.41016444-12.2466 5.56420673-17.387441.7795841-.059363 1.4222946-.682676 1.4222946-1.484077 0-.172153-.1309225-.290879-.1844817-.445223 1.2437639-1.780892 2.6244013-3.45493 4.1419122-4.99837.2082858.106854.3868165.261198.6308085.261198.8509963 0 1.535364-.682676 1.535364-1.525631 0-.213707-.1487756-.362115-.2261389-.54614 2.808883-2.493249 5.9807784-4.582829 9.4323719-6.185632 0 .005937-.0119021.011873-.0119021.023746 0 .842955.6784167 1.52563 1.529413 1.52563.8450453 0 1.529413-.682675 1.529413-1.52563 0-.439287-.1904327-.819211-.4820329-1.104153 4.2549817-1.608739 8.8491717-2.534803 13.6695005-2.534803 5.2011944 0 10.1524457 1.04479 14.6871255 2.90879-.1368735.231516-.3035022.445223-.3035022.730166 0 .842955.6843677 1.52563 1.529413 1.52563.6665146 0 1.1247434-.474904 1.3389802-1.056662 3.5468099 1.769019 6.7841666 4.054497 9.6049516 6.779262.1547266.373987.4106206.617376.7855351.77172 3.1004831 3.164051 5.6415701 6.86237 7.5101914 10.940612-.249943-.184025-.5236901-.362114-.8628984-.362114-.8450453 0-1.535364.688611-1.535364 1.531567 0 .848891.6903187 1.531567 1.535364 1.531567.7855351 0 1.3746864-.617376 1.4699027-1.371287 1.8745724 4.529402 2.9219525 9.480281 2.9219525 14.668613.011902 6.215313-1.5056089 12.080383-4.1419122 17.29246zm7.170983-1.555312c1.8686213-4.897453 2.9338545-10.192638 2.9338545-15.737148 0-10.097657-3.4277894-19.393913-9.1288697-26.861786l59.8910984-42.913559c8.099343 11.2671094 21.316565 18.6518745 36.247683 18.6518745 5.915317 0 11.544985-1.1753886 16.722375-3.2709048l30.23715 73.5330263c-10.926079 5.194269-19.400336 14.656741-23.232795 26.238475zm184.3746032 69.739727c-.172579-.652994-.672465-1.181325-1.374686-1.181325-.850996 0-1.535364.688612-1.535364 1.537503 0 .712357.535592 1.222879 1.202107 1.38316-1.577022 1.495949-3.249259 2.879108-5.05837 4.096051-.23209-.136535-.452278-.308688-.749829-.308688-.850996 0-1.523462.682675-1.523462 1.531567 0 .047491.047608.077172.053559.124663-5.70108 3.306522-12.294814 5.229886-19.352728 5.229886-7.67682 0-14.818048-2.267669-20.840483-6.132205-.243992-.373987-.595102-.635185-1.071184-.688611-1.844818-1.264434-3.564663-2.683211-5.153587-4.244459.238041-.267134.40467-.605504.40467-.991364 0-.848891-.672466-1.537503-1.523462-1.537503-.357061 0-.636759.172153-.892653.373987-1.422295-1.614675-2.701765-3.354013-3.844361-5.200204.035706-.124662.142824-.213707.142824-.350242 0-.718293-.547494-1.234752-1.214009-1.400968-2.993364-5.473275-4.695357-11.747951-4.695357-18.414423 0-9.937377 3.820557-18.972435 10.021523-25.822932.166629.059363.2916.195898.482033.195898.850996 0 1.523462-.682675 1.523462-1.531567 0-.207771-.142824-.356179-.220188-.540204 2.85054-2.74851 6.117652-5.051797 9.700168-6.826752-.113069.213707-.273747.397732-.273747.652993 0 .848892.684368 1.537504 1.535364 1.537504.839094 0 1.523462-.688612 1.523462-1.537504 0-.724229-.547494-1.246624-1.225911-1.400968 4.784623-2.113325 10.05723-3.318395 15.621436-3.318395 7.141228 0 13.812325 1.97679 19.561014 5.348612.243992.504586.660564.902318 1.261617.902318.053559 0 .083314-.053426.130922-.059363 1.85672 1.199134 3.582516 2.558548 5.195244 4.042625-.410621.27307-.726025.664866-.726025 1.193197 0 .848892.684368 1.531567 1.535364 1.531567.535592 0 .928359-.326496 1.196156-.747974 1.422294 1.507822 2.749372 3.098752 3.915773 4.820281-.315404.279006-.52369.65893-.52369 1.116025 0 .842956.684367 1.525631 1.535364 1.525631.184482 0 .309453-.130599.476082-.195898 2.029299 3.532102 3.528956 7.390701 4.356149 11.504562-.095217.189961-.243992.362114-.243992.587694 0 .439287.196384.825146.499886 1.104153.220188 1.418777.368963 2.8613.422522 4.327567-.511788.249325-.922408.670803-.922408 1.276306 0 .617376.422522 1.050726.958115 1.288179-.041658 1.448458-.160678 2.867235-.357062 4.27414-.35111.279006-.607004.65893-.607004 1.139771 0 .296815.166628.522395.315404.759847-.773633 4.084179-2.172124 7.936842-4.118108 11.457071-.243992-.154344-.482033-.326496-.785535-.326496-.850997 0-1.535364.688611-1.535364 1.537503 0 .569885.363012.973554.827192 1.234752-1.190205 1.822446-2.547038 3.526166-4.028843 5.123032z"/><path d="m189.511628 13c.819767 0 1.488372-.6686047 1.488372-1.494186 0-.8255814-.674419-1.505814-1.488372-1.505814-.843023 0-1.511628.6744186-1.511628 1.5s.668605 1.5 1.511628 1.5z"/><circle cx="183.5" cy="11.5" r="1.5"/><circle cx="176.5" cy="11.5" r="1.5"/><path d="m170.488372 13c.843023 0 1.511628-.6699029 1.511628-1.4970874 0-.8271844-.668605-1.5029126-1.511628-1.5029126-.808139 0-1.488372.6757282-1.488372 1.5029126 0 .8271845.680233 1.4970874 1.488372 1.4970874z"/><circle cx="165.5" cy="11.5" r="1.5"/><circle cx="152.5" cy="18.5" r="1.5"/><circle cx="202.5" cy="18.5" r="1.5"/><circle cx="194.5" cy="18.5" r="1.5"/><path d="m189.511628 20c.819767 0 1.488372-.6757282 1.488372-1.5029126 0-.8271845-.668605-1.4970874-1.488372-1.4970874-.843023 0-1.511628.6699029-1.511628 1.4970874 0 .8271844.668605 1.5029126 1.511628 1.5029126z"/><circle cx="183.5" cy="18.5" r="1.5"/><circle cx="176.5" cy="18.5" r="1.5"/><path d="m170.488372 20c.843023 0 1.511628-.6757282 1.511628-1.5029126 0-.8271845-.668605-1.4970874-1.511628-1.4970874-.808139 0-1.488372.6699029-1.488372 1.4970874 0 .8271844.680233 1.5029126 1.488372 1.5029126z"/><circle cx="165.5" cy="18.5" r="1.5"/><circle cx="157.5" cy="18.5" r="1.5"/><circle cx="146.5" cy="25.5" r="1.5"/><circle cx="152.5" cy="25.5" r="1.5"/><circle cx="202.5" cy="25.5" r="1.5"/><circle cx="194.5" cy="25.5" r="1.5"/><path d="m189.511628 27c.819767 0 1.488372-.6699029 1.488372-1.4970874 0-.8271844-.668605-1.5029126-1.488372-1.5029126-.843023 0-1.511628.6757282-1.511628 1.5029126 0 .8271845.668605 1.4970874 1.511628 1.4970874z"/><circle cx="183.5" cy="25.5" r="1.5"/><circle cx="176.5" cy="25.5" r="1.5"/><path d="m170.488372 27c.843023 0 1.511628-.6699029 1.511628-1.4970874 0-.8271844-.668605-1.5029126-1.511628-1.5029126-.808139 0-1.488372.6757282-1.488372 1.5029126 0 .8271845.680233 1.4970874 1.488372 1.4970874z"/><circle cx="165.5" cy="25.5" r="1.5"/><circle cx="157.5" cy="25.5" r="1.5"/><circle cx="146.5" cy="30.5" r="1.5"/><circle cx="152.5" cy="30.5" r="1.5"/><circle cx="207.5" cy="30.5" r="1.5"/><circle cx="202.5" cy="30.5" r="1.5"/><circle cx="194.5" cy="30.5" r="1.5"/><path d="m189.511628 32c.819767 0 1.488372-.6757282 1.488372-1.5029126 0-.8271845-.668605-1.4970874-1.488372-1.4970874-.843023 0-1.511628.6699029-1.511628 1.4970874 0 .8271844.668605 1.5029126 1.511628 1.5029126z"/><circle cx="183.5" cy="30.5" r="1.5"/><circle cx="176.5" cy="30.5" r="1.5"/><path d="m170.488372 32c.843023 0 1.511628-.6757282 1.511628-1.5029126 0-.8271845-.668605-1.4970874-1.511628-1.4970874-.808139 0-1.488372.6699029-1.488372 1.4970874 0 .8271844.680233 1.5029126 1.488372 1.5029126z"/><circle cx="165.5" cy="30.5" r="1.5"/><circle cx="157.5" cy="30.5" r="1.5"/><circle cx="146.5" cy="38.5" r="1.5"/><circle cx="152.5" cy="38.5" r="1.5"/><circle cx="207.5" cy="38.5" r="1.5"/><circle cx="202.5" cy="38.5" r="1.5"/><circle cx="194.5" cy="38.5" r="1.5"/><path d="m189.511628 40c.819767 0 1.488372-.6757282 1.488372-1.5029126 0-.8271845-.668605-1.4970874-1.488372-1.4970874-.843023 0-1.511628.6699029-1.511628 1.4970874 0 .8271844.668605 1.5029126 1.511628 1.5029126z"/><circle cx="183.5" cy="38.5" r="1.5"/><circle cx="176.5" cy="38.5" r="1.5"/><path d="m170.488372 40c.843023 0 1.511628-.6757282 1.511628-1.5029126 0-.8271845-.668605-1.4970874-1.511628-1.4970874-.808139 0-1.488372.6699029-1.488372 1.4970874 0 .8271844.680233 1.5029126 1.488372 1.5029126z"/><circle cx="165.5" cy="38.5" r="1.5"/><circle cx="157.5" cy="38.5" r="1.5"/><circle cx="146.5" cy="44.5" r="1.5"/><circle cx="152.5" cy="44.5" r="1.5"/><circle cx="207.5" cy="44.5" r="1.5"/><circle cx="202.5" cy="44.5" r="1.5"/><circle cx="194.5" cy="44.5" r="1.5"/><path d="m189.511628 46c.819767 0 1.488372-.6699029 1.488372-1.4970874 0-.8271844-.668605-1.5029126-1.488372-1.5029126-.843023 0-1.511628.6757282-1.511628 1.5029126 0 .8271845.668605 1.4970874 1.511628 1.4970874z"/><circle cx="183.5" cy="44.5" r="1.5"/><circle cx="176.5" cy="44.5" r="1.5"/><path d="m170.488372 46c.843023 0 1.511628-.6699029 1.511628-1.4970874 0-.8271844-.668605-1.5029126-1.511628-1.5029126-.808139 0-1.488372.6757282-1.488372 1.5029126 0 .8271845.680233 1.4970874 1.488372 1.4970874z"/><circle cx="165.5" cy="44.5" r="1.5"/><circle cx="157.5" cy="44.5" r="1.5"/><circle cx="146.5" cy="52.5" r="1.5"/><circle cx="152.5" cy="52.5" r="1.5"/><circle cx="207.5" cy="52.5" r="1.5"/><circle cx="202.5" cy="52.5" r="1.5"/><circle cx="194.5" cy="52.5" r="1.5"/><path d="m189.511628 54c.819767 0 1.488372-.6757282 1.488372-1.5029126 0-.8271845-.668605-1.4970874-1.488372-1.4970874-.843023 0-1.511628.6699029-1.511628 1.4970874 0 .8271844.668605 1.5029126 1.511628 1.5029126z"/><circle cx="183.5" cy="52.5" r="1.5"/><circle cx="176.5" cy="52.5" r="1.5"/><path d="m170.488372 54c.843023 0 1.511628-.6757282 1.511628-1.5029126 0-.8271845-.668605-1.4970874-1.511628-1.4970874-.808139 0-1.488372.6699029-1.488372 1.4970874 0 .8271844.680233 1.5029126 1.488372 1.5029126z"/><circle cx="165.5" cy="52.5" r="1.5"/><circle cx="157.5" cy="52.5" r="1.5"/><circle cx="146.5" cy="58.5" r="1.5"/><circle cx="152.5" cy="58.5" r="1.5"/><circle cx="207.5" cy="58.5" r="1.5"/><circle cx="202.5" cy="58.5" r="1.5"/><circle cx="194.5" cy="58.5" r="1.5"/><path d="m189.511628 60c.819767 0 1.488372-.6699029 1.488372-1.4970874 0-.8271844-.668605-1.5029126-1.488372-1.5029126-.843023 0-1.511628.6757282-1.511628 1.5029126 0 .8271845.668605 1.4970874 1.511628 1.4970874z"/><circle cx="183.5" cy="58.5" r="1.5"/><circle cx="176.5" cy="58.5" r="1.5"/><path d="m170.488372 60c.843023 0 1.511628-.6699029 1.511628-1.4970874 0-.8271844-.668605-1.5029126-1.511628-1.5029126-.808139 0-1.488372.6757282-1.488372 1.5029126 0 .8271845.680233 1.4970874 1.488372 1.4970874z"/><circle cx="165.5" cy="58.5" r="1.5"/><circle cx="157.5" cy="58.5" r="1.5"/><circle cx="146.5" cy="65.5" r="1.5"/><circle cx="152.5" cy="65.5" r="1.5"/><circle cx="202.5" cy="65.5" r="1.5"/><circle cx="194.5" cy="65.5" r="1.5"/><path d="m189.511628 67c.819767 0 1.488372-.6757282 1.488372-1.5029126 0-.8271845-.668605-1.4970874-1.488372-1.4970874-.843023 0-1.511628.6699029-1.511628 1.4970874 0 .8271844.668605 1.5029126 1.511628 1.5029126z"/><circle cx="183.5" cy="65.5" r="1.5"/><circle cx="176.5" cy="65.5" r="1.5"/><path d="m170.488372 67c.843023 0 1.511628-.6757282 1.511628-1.5029126 0-.8271845-.668605-1.4970874-1.511628-1.4970874-.808139 0-1.488372.6699029-1.488372 1.4970874 0 .8271844.680233 1.5029126 1.488372 1.5029126z"/><circle cx="165.5" cy="65.5" r="1.5"/><circle cx="157.5" cy="65.5" r="1.5"/><circle cx="152.5" cy="72.5" r="1.5"/><circle cx="194.5" cy="72.5" r="1.5"/><path d="m189.511628 74c.819767 0 1.488372-.6757282 1.488372-1.5087379 0-.8271844-.668605-1.4912621-1.488372-1.4912621-.843023 0-1.511628.6640777-1.511628 1.4912621 0 .8330097.668605 1.5087379 1.511628 1.5087379z"/><circle cx="183.5" cy="72.5" r="1.5"/><circle cx="176.5" cy="72.5" r="1.5"/><path d="m170.488372 74c.843023 0 1.511628-.6757282 1.511628-1.5087379 0-.8271844-.668605-1.4912621-1.511628-1.4912621-.808139 0-1.488372.6640777-1.488372 1.4912621 0 .8330097.680233 1.5087379 1.488372 1.5087379z"/><circle cx="165.5" cy="72.5" r="1.5"/><circle cx="157.5" cy="72.5" r="1.5"/><path d="m189.511628 81c.819767 0 1.488372-.6686047 1.488372-1.494186 0-.8255814-.668605-1.505814-1.488372-1.505814-.843023 0-1.511628.6802326-1.511628 1.505814 0 .8255813.668605 1.494186 1.511628 1.494186z"/><circle cx="183.5" cy="79.5" r="1.5"/><circle cx="176.5" cy="79.5" r="1.5"/><path d="m170.488372 81c.843023 0 1.511628-.6686047 1.511628-1.494186 0-.8255814-.668605-1.505814-1.511628-1.505814-.808139 0-1.488372.6802326-1.488372 1.505814 0 .8255813.680233 1.494186 1.488372 1.494186z"/><circle cx="165.5" cy="79.5" r="1.5"/><circle cx="256.5" cy="166.5" r="1.5"/><path d="m250.494163 165c-.83463 0-1.494163.673114-1.494163 1.497099 0 .829787.659533 1.502901 1.494163 1.502901.846304 0 1.505837-.673114 1.505837-1.502901-.005837-.823985-.66537-1.497099-1.505837-1.497099z"/><circle cx="244.5" cy="166.5" r="1.5"/><path d="m237.511628 165c-.831395 0-1.511628.673114-1.511628 1.497099 0 .829787.680233 1.502901 1.511628 1.502901.808139 0 1.488372-.673114 1.488372-1.502901 0-.823985-.680233-1.497099-1.488372-1.497099z"/><circle cx="232.5" cy="166.5" r="1.5"/><path d="m261.488372 172c-.831395 0-1.488372.674419-1.488372 1.5 0 .831395.656977 1.5 1.488372 1.5.843023 0 1.511628-.668605 1.511628-1.5 0-.825581-.668605-1.5-1.511628-1.5z"/><circle cx="256.5" cy="173.5" r="1.5"/><path d="m250.494163 172c-.83463 0-1.494163.674419-1.494163 1.5 0 .831395.659533 1.5 1.494163 1.5.846304 0 1.505837-.668605 1.505837-1.5-.005837-.825581-.66537-1.5-1.505837-1.5z"/><circle cx="244.5" cy="173.5" r="1.5"/><path d="m237.511628 172c-.831395 0-1.511628.674419-1.511628 1.5 0 .831395.680233 1.5 1.511628 1.5.808139 0 1.488372-.668605 1.488372-1.5 0-.825581-.680233-1.5-1.488372-1.5z"/><circle cx="232.5" cy="173.5" r="1.5"/><circle cx="225.5" cy="173.5" r="1.5"/><path d="m219.494163 172c-.83463 0-1.494163.674419-1.494163 1.5 0 .831395.659533 1.5 1.494163 1.5.846304 0 1.505837-.668605 1.505837-1.5 0-.825581-.659533-1.5-1.505837-1.5z"/><circle cx="269.5" cy="180.5" r="1.5"/><path d="m261.488372 179c-.831395 0-1.488372.669903-1.488372 1.502913 0 .827184.656977 1.497087 1.488372 1.497087.843023 0 1.511628-.669903 1.511628-1.497087 0-.83301-.668605-1.502913-1.511628-1.502913z"/><circle cx="256.5" cy="180.5" r="1.5"/><path d="m250.494163 179c-.83463 0-1.494163.669903-1.494163 1.502913 0 .827184.659533 1.497087 1.494163 1.497087.846304 0 1.505837-.669903 1.505837-1.497087-.005837-.83301-.66537-1.502913-1.505837-1.502913z"/><circle cx="244.5" cy="180.5" r="1.5"/><path d="m237.511628 179c-.831395 0-1.511628.669903-1.511628 1.502913 0 .827184.680233 1.497087 1.511628 1.497087.808139 0 1.488372-.669903 1.488372-1.497087 0-.83301-.680233-1.502913-1.488372-1.502913z"/><circle cx="232.5" cy="180.5" r="1.5"/><circle cx="225.5" cy="180.5" r="1.5"/><path d="m219.494163 179c-.83463 0-1.494163.669903-1.494163 1.502913 0 .827184.659533 1.497087 1.494163 1.497087.846304 0 1.505837-.669903 1.505837-1.497087 0-.83301-.659533-1.502913-1.505837-1.502913z"/><circle cx="213.5" cy="180.5" r="1.5"/><circle cx="274.5" cy="185.5" r="1.5"/><circle cx="269.5" cy="185.5" r="1.5"/><path d="m261.488372 184c-.831395 0-1.488372.673114-1.488372 1.502901 0 .823985.656977 1.497099 1.488372 1.497099.843023 0 1.511628-.673114 1.511628-1.497099 0-.823984-.668605-1.502901-1.511628-1.502901z"/><circle cx="256.5" cy="185.5" r="1.5"/><path d="m250.494163 184c-.83463 0-1.494163.673114-1.494163 1.502901 0 .823985.659533 1.497099 1.494163 1.497099.846304 0 1.505837-.673114 1.505837-1.497099-.005837-.823984-.66537-1.502901-1.505837-1.502901z"/><circle cx="244.5" cy="185.5" r="1.5"/><path d="m237.511628 184c-.831395 0-1.511628.673114-1.511628 1.502901 0 .823985.680233 1.497099 1.511628 1.497099.808139 0 1.488372-.673114 1.488372-1.497099 0-.823984-.680233-1.502901-1.488372-1.502901z"/><circle cx="232.5" cy="185.5" r="1.5"/><circle cx="225.5" cy="185.5" r="1.5"/><path d="m219.494163 184c-.83463 0-1.494163.673114-1.494163 1.502901 0 .823985.659533 1.497099 1.494163 1.497099.846304 0 1.505837-.673114 1.505837-1.497099 0-.823984-.659533-1.502901-1.505837-1.502901z"/><circle cx="213.5" cy="185.5" r="1.5"/><circle cx="207.5" cy="185.5" r="1.5"/><circle cx="274.5" cy="193.5" r="1.5"/><circle cx="269.5" cy="193.5" r="1.5"/><path d="m261.488372 192c-.831395 0-1.488372.674419-1.488372 1.505814 0 .825581.656977 1.494186 1.488372 1.494186.843023 0 1.511628-.668605 1.511628-1.494186s-.668605-1.505814-1.511628-1.505814z"/><circle cx="256.5" cy="193.5" r="1.5"/><path d="m250.494163 192c-.83463 0-1.494163.674419-1.494163 1.505814 0 .825581.659533 1.494186 1.494163 1.494186.846304 0 1.505837-.668605 1.505837-1.494186-.005837-.825581-.66537-1.505814-1.505837-1.505814z"/><circle cx="244.5" cy="193.5" r="1.5"/><path d="m237.511628 192c-.831395 0-1.511628.674419-1.511628 1.505814 0 .825581.680233 1.494186 1.511628 1.494186.808139 0 1.488372-.668605 1.488372-1.494186s-.680233-1.505814-1.488372-1.505814z"/><circle cx="232.5" cy="193.5" r="1.5"/><circle cx="225.5" cy="193.5" r="1.5"/><path d="m219.494163 192c-.83463 0-1.494163.674419-1.494163 1.505814 0 .825581.659533 1.494186 1.494163 1.494186.846304 0 1.505837-.668605 1.505837-1.494186s-.659533-1.505814-1.505837-1.505814z"/><circle cx="213.5" cy="193.5" r="1.5"/><circle cx="207.5" cy="193.5" r="1.5"/><circle cx="274.5" cy="199.5" r="1.5"/><circle cx="269.5" cy="199.5" r="1.5"/><path d="m261.488372 198c-.831395 0-1.488372.671206-1.488372 1.5 0 .83463.656977 1.5 1.488372 1.5.843023 0 1.511628-.66537 1.511628-1.5 0-.828794-.668605-1.5-1.511628-1.5z"/><circle cx="256.5" cy="199.5" r="1.5"/><path d="m250.494163 198c-.83463 0-1.494163.671206-1.494163 1.5 0 .83463.659533 1.5 1.494163 1.5.846304 0 1.505837-.66537 1.505837-1.5-.005837-.828794-.66537-1.5-1.505837-1.5z"/><circle cx="244.5" cy="199.5" r="1.5"/><path d="m237.511628 198c-.831395 0-1.511628.671206-1.511628 1.5 0 .83463.680233 1.5 1.511628 1.5.808139 0 1.488372-.66537 1.488372-1.5 0-.828794-.680233-1.5-1.488372-1.5z"/><circle cx="232.5" cy="199.5" r="1.5"/><circle cx="225.5" cy="199.5" r="1.5"/><path d="m219.494163 198c-.83463 0-1.494163.671206-1.494163 1.5 0 .83463.659533 1.5 1.494163 1.5.846304 0 1.505837-.66537 1.505837-1.5 0-.828794-.659533-1.5-1.505837-1.5z"/><circle cx="213.5" cy="199.5" r="1.5"/><circle cx="207.5" cy="199.5" r="1.5"/><circle cx="274.5" cy="206.5" r="1.5"/><circle cx="269.5" cy="206.5" r="1.5"/><path d="m261.488372 205c-.831395 0-1.488372.668605-1.488372 1.494186 0 .831395.656977 1.505814 1.488372 1.505814.843023 0 1.511628-.674419 1.511628-1.505814 0-.825581-.668605-1.494186-1.511628-1.494186z"/><circle cx="256.5" cy="206.5" r="1.5"/><path d="m250.494163 205c-.83463 0-1.494163.668605-1.494163 1.494186 0 .831395.659533 1.505814 1.494163 1.505814.846304 0 1.505837-.674419 1.505837-1.505814-.005837-.825581-.66537-1.494186-1.505837-1.494186z"/><circle cx="244.5" cy="206.5" r="1.5"/><path d="m237.511628 205c-.831395 0-1.511628.668605-1.511628 1.494186 0 .831395.680233 1.505814 1.511628 1.505814.808139 0 1.488372-.674419 1.488372-1.505814 0-.825581-.680233-1.494186-1.488372-1.494186z"/><circle cx="232.5" cy="206.5" r="1.5"/><circle cx="225.5" cy="206.5" r="1.5"/><path d="m219.494163 205c-.83463 0-1.494163.668605-1.494163 1.494186 0 .831395.659533 1.505814 1.494163 1.505814.846304 0 1.505837-.674419 1.505837-1.505814 0-.825581-.659533-1.494186-1.505837-1.494186z"/><circle cx="213.5" cy="206.5" r="1.5"/><circle cx="207.5" cy="206.5" r="1.5"/><circle cx="274.5" cy="213.5" r="1.5"/><circle cx="269.5" cy="213.5" r="1.5"/><path d="m261.488372 212c-.831395 0-1.488372.669903-1.488372 1.497087 0 .83301.656977 1.502913 1.488372 1.502913.843023 0 1.511628-.669903 1.511628-1.502913 0-.827184-.668605-1.497087-1.511628-1.497087z"/><circle cx="256.5" cy="213.5" r="1.5"/><path d="m250.494163 212c-.83463 0-1.494163.669903-1.494163 1.497087 0 .83301.659533 1.502913 1.494163 1.502913.846304 0 1.505837-.669903 1.505837-1.502913-.005837-.827184-.66537-1.497087-1.505837-1.497087z"/><circle cx="244.5" cy="213.5" r="1.5"/><path d="m237.511628 212c-.831395 0-1.511628.669903-1.511628 1.497087 0 .83301.680233 1.502913 1.511628 1.502913.808139 0 1.488372-.669903 1.488372-1.502913 0-.827184-.680233-1.497087-1.488372-1.497087z"/><circle cx="232.5" cy="213.5" r="1.5"/><circle cx="225.5" cy="213.5" r="1.5"/><path d="m219.494163 212c-.83463 0-1.494163.669903-1.494163 1.497087 0 .83301.659533 1.502913 1.494163 1.502913.846304 0 1.505837-.669903 1.505837-1.502913 0-.827184-.659533-1.497087-1.505837-1.497087z"/><circle cx="213.5" cy="213.5" r="1.5"/><circle cx="207.5" cy="213.5" r="1.5"/><circle cx="269.5" cy="220.5" r="1.5"/><path d="m261.488372 219c-.831395 0-1.488372.673114-1.488372 1.502901 0 .823985.656977 1.497099 1.488372 1.497099.843023 0 1.511628-.673114 1.511628-1.497099 0-.829787-.668605-1.502901-1.511628-1.502901z"/><circle cx="256.5" cy="220.5" r="1.5"/><path d="m250.494163 219c-.83463 0-1.494163.673114-1.494163 1.502901 0 .823985.659533 1.497099 1.494163 1.497099.846304 0 1.505837-.673114 1.505837-1.497099-.005837-.829787-.66537-1.502901-1.505837-1.502901z"/><circle cx="244.5" cy="220.5" r="1.5"/><path d="m237.511628 219c-.831395 0-1.511628.673114-1.511628 1.502901 0 .823985.680233 1.497099 1.511628 1.497099.808139 0 1.488372-.673114 1.488372-1.497099 0-.829787-.680233-1.502901-1.488372-1.502901z"/><circle cx="232.5" cy="220.5" r="1.5"/><circle cx="225.5" cy="220.5" r="1.5"/><path d="m219.494163 219c-.83463 0-1.494163.673114-1.494163 1.502901 0 .823985.659533 1.497099 1.494163 1.497099.846304 0 1.505837-.673114 1.505837-1.497099 0-.829787-.659533-1.502901-1.505837-1.502901z"/><circle cx="213.5" cy="220.5" r="1.5"/><path d="m261.488372 226c-.831395 0-1.488372.674419-1.488372 1.505814 0 .825581.656977 1.494186 1.488372 1.494186.843023 0 1.511628-.668605 1.511628-1.494186 0-.831395-.668605-1.505814-1.511628-1.505814z"/><circle cx="256.5" cy="227.5" r="1.5"/><path d="m250.494163 226c-.83463 0-1.494163.674419-1.494163 1.505814 0 .825581.659533 1.494186 1.494163 1.494186.846304 0 1.505837-.668605 1.505837-1.494186-.005837-.831395-.66537-1.505814-1.505837-1.505814z"/><circle cx="244.5" cy="227.5" r="1.5"/><path d="m237.511628 226c-.831395 0-1.511628.674419-1.511628 1.505814 0 .825581.680233 1.494186 1.511628 1.494186.808139 0 1.488372-.668605 1.488372-1.494186 0-.831395-.680233-1.505814-1.488372-1.505814z"/><circle cx="232.5" cy="227.5" r="1.5"/><circle cx="225.5" cy="227.5" r="1.5"/><path d="m219.494163 226c-.83463 0-1.494163.674419-1.494163 1.505814 0 .825581.659533 1.494186 1.494163 1.494186.846304 0 1.505837-.668605 1.505837-1.494186 0-.831395-.659533-1.505814-1.505837-1.505814z"/><circle cx="256.5" cy="232.5" r="1.5"/><path d="m250.494163 231c-.83463 0-1.494163.669903-1.494163 1.502913 0 .827184.659533 1.497087 1.494163 1.497087.846304 0 1.505837-.669903 1.505837-1.497087-.005837-.83301-.66537-1.502913-1.505837-1.502913z"/><circle cx="244.5" cy="232.5" r="1.5"/><path d="m237.511628 231c-.831395 0-1.511628.669903-1.511628 1.502913 0 .827184.680233 1.497087 1.511628 1.497087.808139 0 1.488372-.669903 1.488372-1.497087 0-.83301-.680233-1.502913-1.488372-1.502913z"/><circle cx="232.5" cy="232.5" r="1.5"/><circle cx="225.5" cy="232.5" r="1.5"/><circle cx="139.5" cy="38.5" r="1.5"/><circle cx="139.5" cy="44.5" r="1.5"/><circle cx="139.5" cy="52.5" r="1.5"/><circle cx="66.5" cy="112.5" r="1.5"/><circle cx="59.5" cy="112.5" r="1.5"/><circle cx="53.5" cy="112.5" r="1.5"/><circle cx="47.5" cy="112.5" r="1.5"/><circle cx="41.5" cy="112.5" r="1.5"/><circle cx="35.5" cy="112.5" r="1.5"/><circle cx="29.5" cy="112.5" r="1.5"/><circle cx="23.5" cy="112.5" r="1.5"/><circle cx="72.5" cy="119.5" r="1.5"/><circle cx="66.5" cy="119.5" r="1.5"/><circle cx="59.5" cy="119.5" r="1.5"/><circle cx="53.5" cy="119.5" r="1.5"/><circle cx="47.5" cy="119.5" r="1.5"/><circle cx="41.5" cy="119.5" r="1.5"/><circle cx="35.5" cy="119.5" r="1.5"/><circle cx="29.5" cy="119.5" r="1.5"/><circle cx="23.5" cy="119.5" r="1.5"/><circle cx="17.5" cy="119.5" r="1.5"/><circle cx="72.5" cy="126.5" r="1.5"/><circle cx="66.5" cy="126.5" r="1.5"/><circle cx="59.5" cy="126.5" r="1.5"/><circle cx="53.5" cy="126.5" r="1.5"/><circle cx="47.5" cy="126.5" r="1.5"/><circle cx="41.5" cy="126.5" r="1.5"/><circle cx="35.5" cy="126.5" r="1.5"/><circle cx="29.5" cy="126.5" r="1.5"/><circle cx="23.5" cy="126.5" r="1.5"/><circle cx="17.5" cy="126.5" r="1.5"/><circle cx="10.5" cy="126.5" r="1.5"/><circle cx="77.5" cy="132.5" r="1.5"/><circle cx="72.5" cy="132.5" r="1.5"/><circle cx="66.5" cy="132.5" r="1.5"/><circle cx="59.5" cy="132.5" r="1.5"/><circle cx="53.5" cy="132.5" r="1.5"/><circle cx="47.5" cy="132.5" r="1.5"/><circle cx="41.5" cy="132.5" r="1.5"/><circle cx="35.5" cy="132.5" r="1.5"/><circle cx="29.5" cy="132.5" r="1.5"/><circle cx="23.5" cy="132.5" r="1.5"/><circle cx="17.5" cy="132.5" r="1.5"/><circle cx="10.5" cy="132.5" r="1.5"/><circle cx="77.5" cy="138.5" r="1.5"/><circle cx="72.5" cy="138.5" r="1.5"/><circle cx="66.5" cy="138.5" r="1.5"/><circle cx="59.5" cy="138.5" r="1.5"/><circle cx="53.5" cy="138.5" r="1.5"/><circle cx="47.5" cy="138.5" r="1.5"/><circle cx="41.5" cy="138.5" r="1.5"/><circle cx="35.5" cy="138.5" r="1.5"/><circle cx="29.5" cy="138.5" r="1.5"/><circle cx="23.5" cy="138.5" r="1.5"/><circle cx="17.5" cy="138.5" r="1.5"/><circle cx="10.5" cy="138.5" r="1.5"/><circle cx="77.5" cy="146.5" r="1.5"/><circle cx="72.5" cy="146.5" r="1.5"/><circle cx="66.5" cy="146.5" r="1.5"/><circle cx="59.5" cy="146.5" r="1.5"/><circle cx="53.5" cy="146.5" r="1.5"/><circle cx="47.5" cy="146.5" r="1.5"/><circle cx="41.5" cy="146.5" r="1.5"/><circle cx="35.5" cy="146.5" r="1.5"/><circle cx="29.5" cy="146.5" r="1.5"/><circle cx="23.5" cy="146.5" r="1.5"/><circle cx="17.5" cy="146.5" r="1.5"/><circle cx="10.5" cy="146.5" r="1.5"/><circle cx="77.5" cy="152.5" r="1.5"/><circle cx="72.5" cy="152.5" r="1.5"/><circle cx="66.5" cy="152.5" r="1.5"/><circle cx="59.5" cy="152.5" r="1.5"/><circle cx="53.5" cy="152.5" r="1.5"/><circle cx="47.5" cy="152.5" r="1.5"/><circle cx="41.5" cy="152.5" r="1.5"/><circle cx="35.5" cy="152.5" r="1.5"/><circle cx="29.5" cy="152.5" r="1.5"/><circle cx="23.5" cy="152.5" r="1.5"/><circle cx="17.5" cy="152.5" r="1.5"/><circle cx="10.5" cy="152.5" r="1.5"/><circle cx="72.5" cy="159.5" r="1.5"/><circle cx="66.5" cy="159.5" r="1.5"/><circle cx="59.5" cy="159.5" r="1.5"/><circle cx="53.5" cy="159.5" r="1.5"/><circle cx="47.5" cy="159.5" r="1.5"/><circle cx="41.5" cy="159.5" r="1.5"/><circle cx="35.5" cy="159.5" r="1.5"/><circle cx="29.5" cy="159.5" r="1.5"/><circle cx="23.5" cy="159.5" r="1.5"/><circle cx="17.5" cy="159.5" r="1.5"/><circle cx="66.5" cy="166.5" r="1.5"/><circle cx="59.5" cy="166.5" r="1.5"/><circle cx="53.5" cy="166.5" r="1.5"/><circle cx="47.5" cy="166.5" r="1.5"/><circle cx="41.5" cy="166.5" r="1.5"/><circle cx="35.5" cy="166.5" r="1.5"/><circle cx="29.5" cy="166.5" r="1.5"/><circle cx="23.5" cy="166.5" r="1.5"/><circle cx="59.5" cy="173.5" r="1.5"/><circle cx="53.5" cy="173.5" r="1.5"/><circle cx="47.5" cy="173.5" r="1.5"/><circle cx="41.5" cy="173.5" r="1.5"/><circle cx="35.5" cy="173.5" r="1.5"/><circle cx="29.5" cy="173.5" r="1.5"/><circle cx="53.5" cy="105.5" r="1.5"/><circle cx="47.5" cy="105.5" r="1.5"/><circle cx="41.5" cy="105.5" r="1.5"/><circle cx="35.5" cy="105.5" r="1.5"/></g><text font-family="Kanit-SemiBold, Kanit" font-size="140" font-weight="500"><tspan x="296" y="173">GraphiCMS</tspan></text></g></svg>